<?xml version="1.0" encoding="utf-8"?>
<!-- Generator: Adobe Illustrator 25.4.1, SVG Export Plug-In . SVG Version: 6.00 Build 0)  -->
<svg version="1.1" xmlns="http://www.w3.org/2000/svg" xmlns:xlink="http://www.w3.org/1999/xlink" x="0px" y="0px"
	 viewBox="0 0 315.57 281.87" style="enable-background:new 0 0 315.57 281.87;" xml:space="preserve">
<style type="text/css">
	.st0{fill:#19A049;}
	.st1{fill:#7F7F7F;}
</style>
<g id="_x31_">
	<g>
		<g>
			<path class="st0" d="M157.98,251.73c-55.25,0-100.21-44.95-100.21-100.21S102.73,51.32,157.98,51.32s100.21,44.95,100.21,100.21
				S213.24,251.73,157.98,251.73z M157.98,61.34c-49.73,0-90.19,40.46-90.19,90.19c0,49.73,40.46,90.19,90.19,90.19
				c49.73,0,90.19-40.46,90.19-90.19C248.17,101.79,207.71,61.34,157.98,61.34z"/>
		</g>
		<g>
			<path class="st0" d="M157.98,251.73c-26.04,0-40.08-51.63-40.08-100.21s14.05-100.21,40.08-100.21s40.08,51.63,40.08,100.21
				S184.02,251.73,157.98,251.73z M157.98,61.34c-14.22,0-30.06,37.04-30.06,90.19s15.84,90.19,30.06,90.19
				c14.22,0,30.06-37.04,30.06-90.19S172.2,61.34,157.98,61.34z"/>
		</g>
		<g>
			<path class="st0" d="M157.98,123.13c-28.01,0-54.94-11.85-73.88-32.52l-3.1-3.39l3.1-3.39c18.95-20.67,45.87-32.52,73.88-32.52
				c28.01,0,54.94,11.85,73.89,32.52l3.1,3.39l-3.1,3.39C212.92,111.28,185.99,123.13,157.98,123.13z M94.76,87.22
				c16.81,16.51,39.59,25.89,63.23,25.89c23.64,0,46.42-9.38,63.23-25.89c-16.81-16.51-39.59-25.89-63.23-25.89
				C134.34,61.34,111.56,70.72,94.76,87.22z"/>
		</g>
		<g>
			<path class="st0" d="M157.98,251.73c-28.34,0-55.49-12.1-74.48-33.18l-3.02-3.35l3.02-3.35c18.99-21.09,46.14-33.18,74.48-33.18
				c28.35,0,55.49,12.09,74.48,33.18l3.02,3.35l-3.02,3.35 M94.12,215.2c16.87,16.91,39.89,26.52,63.86,26.52
				c23.97,0,46.99-9.61,63.86-26.52c-16.87-16.91-39.89-26.51-63.86-26.51C134.01,188.68,111,198.29,94.12,215.2z"/>
		</g>
		<g>
			<path class="st1" d="M269.97,155.22c4.75,10.03-16.91,26.1-26.93,30.48c-10.02,4.38-141.44,38.2-160.28,38.2
				s-50.78-35.7-55.79-36.95c-5.01-1.25,23.17-8.14,23.17-8.14s25.16,16.08,32.62,15.87c7.46-0.21,48.17-15.24,48.17-15.24
				s-68.89-30.69-78.29-36.64c0,0,9.39-12.21,25.05-8.77c15.66,3.44,85.18,29.75,94.57,29.75c9.39,0,54.49-15.03,63.88-17.54
				C245.54,143.74,266.21,147.29,269.97,155.22z"/>
		</g>
	</g>
</g>
<g id="Designed_by_Vecteezy">
</g>
</svg>
