<?xml version="1.0" encoding="UTF-8" standalone="no"?>
<!DOCTYPE svg PUBLIC "-//W3C//DTD SVG 1.1//EN" "http://www.w3.org/Graphics/SVG/1.1/DTD/svg11.dtd">
<svg width="100%" height="100%" viewBox="0 0 3710 3710" version="1.1" xmlns="http://www.w3.org/2000/svg" xmlns:xlink="http://www.w3.org/1999/xlink" xml:space="preserve" xmlns:serif="http://www.serif.com/" style="fill-rule:evenodd;clip-rule:evenodd;stroke-linejoin:round;stroke-miterlimit:2;">
    <g>
        <g transform="matrix(1.10975,0,0,1.03948,-240.487,-64.1459)">
            <path d="M2919.46,1017.29C2740.25,1044.67 2123.85,1130.39 1612.51,1099.78C1589.19,1098.38 1569.28,1116.37 1568.43,1139.71L1498.83,3056.9C1497.88,3083.19 1518.31,3105.31 1544.59,3106.42C1759.59,3115.52 2644.95,3149.78 2959.9,3111.43C2979.07,3109.1 2993.37,3092.69 2993.16,3073.38L2971.17,1061.25C2994.87,1037.91 2946.48,1013.16 2919.46,1017.29Z" style="fill:rgb(31,118,186);fill-rule:nonzero;"/>
        </g>
        <path d="M2901.05,1067.3C2728.59,1093.65 2135.4,1176.14 1643.32,1146.68C1620.88,1145.34 1601.72,1162.64 1600.9,1185.11L1533.93,3030.11C1533.01,3055.4 1552.67,3076.69 1577.96,3077.76C1784.86,3086.52 2636.89,3119.49 2939.97,3082.59C2958.42,3080.34 2972.18,3064.55 2971.98,3045.96L2950.82,1109.6C2950.53,1083.3 2927.06,1063.33 2901.05,1067.3Z" style="fill:rgb(24,160,53);fill-rule:nonzero;"/>
        <path d="M1659.87,1308.4C1652.91,1308.4 1647.53,1302.77 1647.88,1295.79L1647.92,1294.9C1648.27,1287.85 1654.33,1281.93 1661.39,1281.76L2777.74,1254.18L2778.14,1254.18C2784.89,1254.18 2786.98,1258.55 2782.75,1264.05L2770.73,1279.68C2766.42,1285.28 2757.12,1289.96 2750.06,1290.08L1660.09,1308.4L1659.87,1308.4Z" style="fill:rgb(229,236,253);fill-rule:nonzero;"/>
        <path d="M1661.11,1382.08C1654.15,1382.08 1648.77,1376.45 1649.12,1369.46L1649.16,1368.58C1649.51,1361.52 1655.57,1355.6 1662.63,1355.43L2778.98,1327.86C2779.12,1327.85 2779.25,1327.85 2779.38,1327.85C2786.13,1327.85 2788.22,1332.23 2783.99,1337.72L2771.97,1353.35C2767.66,1358.95 2758.36,1363.63 2751.3,1363.75L1661.33,1382.08L1661.11,1382.08Z" style="fill:rgb(229,236,253);fill-rule:nonzero;"/>
        <path d="M2772.75,1823.72C2760.23,1822.67 2742.98,1820.93 2724.01,1819.01C2685.09,1815.09 2636.66,1810.2 2609.66,1809.44C2595.79,1808.73 2582.79,1817.41 2579.36,1829.31C2571.64,1856.2 2571.51,1909.24 2572.07,1965.85C2572.2,1978.21 2583.76,1988.34 2597.91,1988.56C2598.01,1988.57 2598.11,1988.57 2598.21,1988.57L2746.26,1989.45C2761.45,1989.54 2774.1,1979.7 2775.68,1966.56L2790.63,1842.55C2791.13,1838.47 2789.88,1834.35 2787.12,1830.97C2783.77,1826.84 2778.53,1824.21 2772.75,1823.72ZM2559.99,1965.97C2559.42,1908.43 2559.58,1854.42 2567.75,1825.98C2572.7,1808.75 2589.77,1797.05 2609.4,1797.35C2609.6,1797.36 2609.8,1797.37 2610.01,1797.37C2637.43,1798.14 2684.07,1802.85 2725.22,1807C2744.12,1808.9 2761.29,1810.64 2773.77,1811.68C2782.79,1812.44 2791.07,1816.69 2796.49,1823.34C2801.34,1829.29 2803.52,1836.63 2802.63,1844L2787.68,1968.01C2785.36,1987.24 2767.52,2001.66 2746.19,2001.53L2598.13,2000.65C2598,2000.65 2597.86,2000.65 2597.73,2000.64C2577.07,2000.32 2560.18,1984.84 2559.99,1965.97Z" style="fill:white;fill-rule:nonzero;"/>
        <path d="M2735.25,1978.01L2735.05,1978.01L2616.74,1977.31C2602.6,1977.22 2591.18,1966.98 2591.06,1954.37C2590.64,1912.27 2590.53,1866.66 2597.07,1843.88C2600.36,1832.42 2611.94,1824.5 2625.14,1824.5C2625.44,1824.5 2625.75,1824.5 2626.06,1824.51C2658.11,1825.41 2725.6,1833.33 2756.66,1835.94C2768.17,1836.9 2776.57,1846.13 2775.33,1856.38L2763.39,1955.47C2761.84,1968.31 2749.71,1978.01 2735.25,1978.01Z" style="fill:rgb(229,236,253);fill-rule:nonzero;"/>
        <path d="M2448.64,1943.1L2448.43,1943.1L1704.45,1931.52C1697.39,1931.42 1691.82,1925.55 1692.09,1918.49L1693.19,1888.96C1693.46,1881.9 1699.45,1876.07 1706.52,1876.02L2469.1,1869.74L2469.21,1869.74C2476.2,1869.74 2480.37,1875.23 2478.47,1882L2464.75,1930.94C2462.86,1937.67 2455.64,1943.1 2448.64,1943.1Z" style="fill:rgb(229,236,253);fill-rule:nonzero;"/>
        <path d="M2764.17,1491.32C2751.64,1490.26 2734.4,1488.53 2715.42,1486.61C2676.5,1482.69 2628.07,1477.8 2601.08,1477.04C2587.21,1476.32 2574.2,1485.01 2570.78,1496.91C2563.06,1523.79 2562.92,1576.84 2563.48,1633.45C2563.61,1645.8 2575.17,1655.94 2589.33,1656.16C2589.42,1656.16 2589.53,1656.16 2589.62,1656.17L2737.67,1657.05C2752.87,1657.14 2765.52,1647.3 2767.1,1634.16L2782.05,1510.15C2782.54,1506.06 2781.29,1501.94 2778.54,1498.56C2775.18,1494.44 2769.95,1491.8 2764.17,1491.32ZM2551.41,1633.57C2550.83,1576.02 2550.99,1522.02 2559.16,1493.57C2564.12,1476.35 2581.19,1464.65 2600.81,1464.95C2601.02,1464.95 2601.21,1464.96 2601.42,1464.97C2628.85,1465.73 2675.48,1470.44 2716.63,1474.59C2735.53,1476.5 2752.71,1478.23 2765.18,1479.28C2774.2,1480.04 2782.49,1484.28 2787.9,1490.93C2792.75,1496.88 2794.93,1504.22 2794.04,1511.6L2779.09,1635.6C2776.78,1654.84 2758.94,1669.25 2737.6,1669.13L2589.55,1668.24L2589.14,1668.24C2568.48,1667.92 2551.6,1652.44 2551.41,1633.57Z" style="fill:white;fill-rule:nonzero;"/>
        <path d="M2726.66,1645.61L2726.47,1645.61L2608.15,1644.9C2594.02,1644.82 2582.6,1634.58 2582.47,1621.97C2582.05,1579.87 2581.94,1534.26 2588.49,1511.48C2591.78,1500.02 2603.35,1492.1 2616.55,1492.1C2616.86,1492.1 2617.17,1492.1 2617.48,1492.11C2649.53,1493.01 2717.01,1500.92 2748.07,1503.53C2759.59,1504.5 2767.99,1513.72 2766.75,1523.97L2754.8,1623.07C2753.26,1635.91 2741.13,1645.61 2726.66,1645.61Z" style="fill:rgb(229,236,253);fill-rule:nonzero;"/>
        <path d="M2440.06,1610.7L2439.85,1610.7L1695.86,1599.12C1688.8,1599.01 1683.24,1593.15 1683.5,1586.09L1684.61,1556.55C1684.87,1549.49 1690.87,1543.67 1697.93,1543.61L2460.51,1537.33L2460.62,1537.33C2467.62,1537.33 2471.78,1542.83 2469.89,1549.59L2456.16,1598.53C2454.27,1605.27 2447.06,1610.7 2440.06,1610.7Z" style="fill:rgb(229,236,253);fill-rule:nonzero;"/>
        <path d="M2767.82,2140.99C2755.29,2139.93 2738.05,2138.2 2719.07,2136.28C2680.15,2132.36 2631.72,2127.47 2604.73,2126.71C2590.85,2126.15 2577.85,2134.67 2574.43,2146.58C2566.7,2173.46 2566.57,2226.51 2567.13,2283.12C2567.26,2295.47 2578.82,2305.61 2592.98,2305.83C2593.07,2305.83 2593.17,2305.83 2593.27,2305.84L2741.32,2306.72C2756.51,2306.81 2769.16,2296.97 2770.75,2283.83L2785.7,2159.83C2786.19,2155.74 2784.94,2151.61 2782.18,2148.23C2778.83,2144.11 2773.59,2141.47 2767.82,2140.99ZM2555.06,2283.24C2554.48,2225.7 2554.64,2171.69 2562.81,2143.25C2567.76,2126.02 2584.84,2114.31 2604.47,2114.62C2604.66,2114.62 2604.87,2114.63 2605.07,2114.64C2632.5,2115.41 2679.13,2120.11 2720.28,2124.26C2739.18,2126.17 2756.35,2127.9 2768.83,2128.95C2777.85,2129.71 2786.13,2133.95 2791.55,2140.6C2796.4,2146.56 2798.58,2153.89 2797.69,2161.28L2782.74,2285.28C2780.43,2304.51 2762.59,2318.92 2741.25,2318.8L2593.2,2317.92C2593.06,2317.91 2592.93,2317.91 2592.79,2317.91C2572.13,2317.59 2555.25,2302.11 2555.06,2283.24Z" style="fill:white;fill-rule:nonzero;"/>
        <path d="M2730.31,2295.28L2730.12,2295.28L2611.8,2294.58C2597.67,2294.49 2586.25,2284.25 2586.12,2271.64C2585.7,2229.54 2585.59,2183.93 2592.14,2161.15C2595.43,2149.69 2607,2141.77 2620.2,2141.77C2620.51,2141.77 2620.82,2141.78 2621.13,2141.78C2653.17,2142.68 2720.66,2150.6 2751.72,2153.21C2763.24,2154.17 2771.63,2163.4 2770.4,2173.65L2758.45,2272.74C2756.91,2285.58 2744.77,2295.28 2730.31,2295.28Z" style="fill:rgb(229,236,253);fill-rule:nonzero;"/>
        <g transform="matrix(1,0,0,1,-5.33346,293.333)">
            <path d="M2448.64,1943.1L2448.43,1943.1L1704.45,1931.52C1697.39,1931.42 1691.82,1925.55 1692.09,1918.49L1693.19,1888.96C1693.46,1881.9 1699.45,1876.07 1706.52,1876.02L2469.1,1869.74L2469.21,1869.74C2476.2,1869.74 2480.37,1875.23 2478.47,1882L2464.75,1930.94C2462.86,1937.67 2455.64,1943.1 2448.64,1943.1Z" style="fill:rgb(229,236,253);fill-rule:nonzero;"/>
        </g>
        <g transform="matrix(1,0,0,1,-16.0002,624)">
            <path d="M2448.64,1943.1L2448.43,1943.1L1704.45,1931.52C1697.39,1931.42 1691.82,1925.55 1692.09,1918.49L1693.19,1888.96C1693.46,1881.9 1699.45,1876.07 1706.52,1876.02L2469.1,1869.74L2469.21,1869.74C2476.2,1869.74 2480.37,1875.23 2478.47,1882L2464.75,1930.94C2462.86,1937.67 2455.64,1943.1 2448.64,1943.1Z" style="fill:rgb(229,236,253);fill-rule:nonzero;"/>
        </g>
        <path d="M2448.64,1943.1L2448.43,1943.1L1704.45,1931.52C1697.39,1931.42 1691.82,1925.55 1692.09,1918.49L1693.19,1888.96C1693.46,1881.9 1699.45,1876.07 1706.52,1876.02L2469.1,1869.74L2469.21,1869.74C2476.2,1869.74 2480.37,1875.23 2478.47,1882L2464.75,1930.94C2462.86,1937.67 2455.64,1943.1 2448.64,1943.1Z" style="fill:rgb(229,236,253);fill-rule:nonzero;"/>
        <path d="M2776.93,2445.86C2764.41,2444.8 2747.18,2443.07 2728.23,2441.15C2689.3,2437.23 2640.84,2432.34 2613.84,2431.59C2599.96,2431.17 2586.96,2439.55 2583.54,2451.45C2575.81,2478.34 2575.68,2531.37 2576.24,2587.99C2576.37,2600.43 2588.43,2610.25 2602.38,2610.71L2750.44,2611.59C2765.62,2611.68 2778.27,2601.84 2779.86,2588.69L2794.81,2464.7C2795.3,2460.61 2794.05,2456.5 2791.3,2453.11C2787.94,2448.98 2782.7,2446.34 2776.93,2445.86ZM2564.17,2588.1C2563.59,2530.57 2563.75,2476.56 2571.92,2448.12C2576.93,2430.71 2594.7,2419.11 2614.17,2419.51C2641.62,2420.28 2690.31,2425.19 2729.44,2429.14C2748.32,2431.04 2765.48,2432.77 2777.94,2433.82C2786.96,2434.58 2795.25,2438.83 2800.66,2445.48C2805.51,2451.43 2807.69,2458.77 2806.8,2466.15L2791.85,2590.14C2789.53,2609.39 2771.69,2623.8 2750.36,2623.67L2602.3,2622.79C2602.17,2622.79 2602.04,2622.79 2601.91,2622.78C2581.25,2622.46 2564.35,2606.98 2564.17,2588.1Z" style="fill:white;fill-rule:nonzero;"/>
        <path d="M2739.42,2600.15L2739.23,2600.15L2620.91,2599.45C2606.78,2599.36 2595.36,2589.12 2595.23,2576.51C2594.81,2534.41 2594.7,2488.8 2601.25,2466.02C2604.54,2454.56 2616.11,2446.64 2629.31,2446.64C2629.62,2446.64 2629.93,2446.65 2630.24,2446.66C2662.29,2447.55 2729.77,2455.47 2760.83,2458.07C2772.35,2459.04 2780.74,2468.27 2779.51,2478.52L2767.56,2577.61C2766.02,2590.45 2753.89,2600.15 2739.42,2600.15Z" style="fill:rgb(229,236,253);fill-rule:nonzero;"/>
        <g transform="matrix(8.14114,0,0,1,-17169.2,26.6667)">
            <path d="M2383.26,2878.42L2383.05,2878.42L2319.12,2877.43L2319.12,2805.97L2401.65,2805.06L2401.8,2805.06C2408.77,2805.06 2413.07,2810.57 2411.35,2817.37L2399.04,2866.17C2397.33,2872.95 2390.26,2878.42 2383.26,2878.42Z" style="fill:rgb(229,236,253);fill-rule:nonzero;"/>
        </g>
        <path d="M2757.93,2887.67C2757.87,2887.67 2757.8,2887.67 2757.73,2887.66L2522.77,2884.01C2515.71,2883.9 2510.07,2878.03 2510.24,2870.97L2510.75,2849.83C2510.92,2842.77 2516.84,2836.74 2523.9,2836.43L2765.33,2825.81C2765.52,2825.8 2765.71,2825.8 2765.9,2825.8C2772.66,2825.8 2777.44,2831.18 2776.61,2838L2772.12,2875.11C2771.28,2882.06 2764.92,2887.67 2757.93,2887.67Z" style="fill:rgb(229,236,253);fill-rule:nonzero;"/>
        <path d="M2209.8,857.852C2209.45,837.3 2225.83,820.36 2246.38,820.014C2266.94,819.667 2283.88,836.049 2284.22,856.601C2284.57,877.153 2268.19,894.093 2247.64,894.439C2227.08,894.785 2210.14,878.405 2209.8,857.852ZM2180.62,972.454L2329.64,956.701L2339.88,819.599C2341.94,792.011 2324.31,766.688 2297.65,759.307C2268.43,751.214 2227.1,751.254 2180.15,785.104C2088.06,851.494 2180.62,972.454 2180.62,972.454Z" style="fill:url(#_Linear1);"/>
        <path d="M2316.34,860.348C2312.27,860.044 2309.22,856.501 2309.52,852.432L2310.76,835.852C2312.33,814.781 2298.79,795.43 2278.55,789.828C2262.42,785.361 2245.84,784.957 2229.3,788.644C2225.31,789.531 2221.36,787.014 2220.47,783.031C2219.58,779.042 2222.16,775.146 2226.08,774.207C2245.02,769.994 2264.01,770.458 2282.5,775.578C2309.52,783.061 2327.6,808.866 2325.5,836.947L2324.26,853.525C2324.05,856.473 2322.13,858.883 2319.55,859.877C2318.56,860.258 2317.47,860.432 2316.34,860.348ZM2313.15,903.135C2309.08,902.833 2306.02,899.289 2306.33,895.218L2307.96,873.382C2308.26,869.298 2311.81,866.248 2315.88,866.56C2319.95,866.863 2323,870.407 2322.7,874.478L2321.07,896.314C2320.85,899.259 2318.94,901.67 2316.36,902.665C2315.37,903.047 2314.27,903.22 2313.15,903.135Z" style="fill:rgb(189,208,251);fill-rule:nonzero;"/>
        <path d="M2534.81,1041.74L2533.65,972.916C2533.25,949.158 2513.24,930.461 2489.51,931.674L2015.27,955.91C1994.22,956.985 1977.45,973.896 1976.54,994.949L1973.69,1061.15L2534.81,1041.74Z" style="fill:url(#_Linear2);"/>
        <path d="M2376.91,960.203C2379.26,960.143 2381.13,958.195 2381.09,955.837C2381.05,953.462 2379.1,951.572 2376.72,951.612L2356.31,951.955C2353.84,952.023 2352.05,953.952 2352.09,956.322C2352.13,958.696 2354.09,960.587 2356.46,960.547L2376.87,960.204L2376.91,960.203Z" style="fill:rgb(189,208,251);fill-rule:nonzero;"/>
        <path d="M2511.36,1023.86C2514.17,1022.78 2516.15,1020.03 2516.09,1016.84L2515.63,988.992C2515.43,977.561 2510.8,966.889 2502.58,958.939C2494.36,950.991 2483.54,946.714 2472.1,946.905L2397.08,948.17C2393.02,948.251 2389.74,951.602 2389.81,955.691C2389.88,959.774 2393.25,963.025 2397.33,962.96L2472.35,961.693C2487.8,961.434 2500.58,973.792 2500.84,989.243L2501.31,1017.09C2501.38,1021.17 2504.75,1024.42 2508.83,1024.36C2509.72,1024.34 2510.57,1024.16 2511.36,1023.86Z" style="fill:rgb(189,208,251);fill-rule:nonzero;"/>
        <path d="M2683.07,1014.05L1853.29,1027.98C1823.46,1028.48 1798.31,1050.38 1793.71,1079.87L1793.08,1083.94C1788.04,1116.23 1813.33,1145.27 1846.01,1144.72L2697.32,1130.4C2716.88,1130.08 2732.19,1113.46 2730.92,1093.94L2728.45,1055.87C2726.9,1032.06 2706.93,1013.65 2683.07,1014.05Z" style="fill:url(#_Linear3);"/>
        <path d="M2753.97,1877.82C2745.18,1870.86 2732.4,1872.5 2725.64,1881.43L2693.85,1923.47C2690.67,1927.67 2684.05,1926.46 2682.58,1921.39L2639.1,1772.18C2636.93,1764.74 2626.17,1765.65 2625.21,1773.35C2619.87,1816.38 2619.87,1899.61 2678.96,1977.52C2678.96,1977.52 2718.83,1968.1 2758.61,1905.47C2764.36,1896.43 2762.38,1884.46 2753.97,1877.82Z" style="fill:rgb(41,169,224);"/>
        <path d="M2742.34,1524.06C2733.55,1517.11 2720.76,1518.74 2714.01,1527.68L2682.22,1569.71C2679.04,1573.92 2672.42,1572.7 2670.94,1567.64L2627.47,1418.43C2625.3,1410.99 2614.54,1411.9 2613.58,1419.59C2608.23,1462.63 2608.24,1545.86 2667.33,1623.77C2667.33,1623.77 2707.19,1614.35 2746.98,1551.72C2752.73,1542.67 2750.74,1530.71 2742.34,1524.06Z" style="fill:rgb(41,169,224);"/>
        <path d="M2736.97,2183.52C2728.18,2176.57 2715.4,2178.2 2708.64,2187.14L2676.85,2229.17C2673.67,2233.38 2667.05,2232.16 2665.58,2227.1L2622.1,2077.89C2619.93,2070.45 2609.17,2071.36 2608.22,2079.05C2602.87,2122.09 2602.87,2205.32 2661.96,2283.23C2661.96,2283.23 2701.83,2273.81 2741.61,2211.18C2747.36,2202.13 2745.38,2190.17 2736.97,2183.52Z" style="fill:rgb(41,169,224);"/>
        <path d="M2750.12,2474.4C2741.33,2467.45 2728.55,2469.08 2721.79,2478.02L2690,2520.05C2686.82,2524.26 2680.2,2523.04 2678.73,2517.97L2635.25,2368.76C2633.08,2361.32 2622.32,2362.23 2621.36,2369.93C2616.01,2412.97 2616.02,2496.19 2675.11,2574.1C2675.11,2574.1 2714.97,2564.68 2754.76,2502.06C2760.51,2493.01 2758.52,2481.05 2750.12,2474.4Z" style="fill:rgb(41,169,224);"/>
        <path d="M1767.86,1636.13L1718.33,1662.79C1658.92,1698.96 1605.76,1718.07 1557.92,1725.25C1408.55,1747.66 1311.19,1653.41 1238.65,1596.24C1142.87,1520.76 1068.33,1557.48 1068.33,1557.48L1170.48,1752.42C1323.02,1896.25 1479.42,1864.31 1578.02,1817.7C1640.78,1788.03 1680.13,1752.42 1680.13,1752.42C1792.34,1685.51 1767.86,1636.13 1767.86,1636.13Z" style="fill:url(#_Linear4);"/>
        <path d="M1913.79,1705.94C1910.59,1695.31 1902.73,1686.71 1892.43,1682.56L1791.9,1642.14C1791.9,1642.14 1790.38,1629.24 1813.14,1620.48C1835.9,1611.72 1830.58,1586.23 1830.58,1586.23C1830.58,1586.23 1799.49,1600.42 1753.97,1622.91C1727.94,1635.78 1713.33,1658.49 1705.59,1675.59L1731.46,1709.62C1793.42,1728.23 1856.12,1731.79 1919.35,1724.41L1913.79,1705.94Z" style="fill:url(#_Linear5);"/>
        <path d="M1046.38,3126.74C1046.38,3126.74 1038.73,3170.06 1034.98,3212.95C1033.51,3229.71 1046.43,3244.26 1063.24,3244.96C1120.35,3247.34 1242.5,3251.96 1286.34,3250.01C1292.93,3249.71 1297.24,3242.97 1294.8,3236.84C1292.75,3231.7 1288.81,3227.55 1283.79,3225.24L1082.01,3132.5L1046.38,3126.74Z" style="fill:rgb(24,160,53);"/>
        <path d="M1040.11,3101.29L1046.26,3153.11C1046.26,3153.11 1081.61,3169.56 1105.75,3151.03L1091.11,3093.29L1040.11,3101.29Z" style="fill:rgb(41,169,224);"/>
        <path d="M1030.24,2092.94C1027.59,2106.97 1035.01,2827.83 1105.75,3135.3C1106.9,3140.32 1114.22,3150.17 1111.69,3154.48C1105.55,3164.98 1060.35,3162.04 1034.86,3162.92C1026.97,3163.2 1022.73,3153.94 1020.5,3146.08C1000.28,3074.74 903.396,2717.32 890.756,2375.89C876.634,1994.37 890.756,2362.9 890.756,2362.9L884.479,2121.19L1030.24,2092.94Z" style="fill:url(#_Linear6);"/>
        <path d="M814.269,3149.34C814.269,3149.34 802.087,3171.21 790.295,3229.33C788.165,3239.82 795.498,3249.87 806.156,3250.91C825.012,3252.77 854.042,3255.15 877.296,3254.99C888.016,3254.92 896.382,3245.58 895.09,3234.94C892.514,3213.73 884.49,3178.93 859.7,3151.8L814.269,3149.34Z" style="fill:rgb(24,160,53);"/>
        <path d="M803.57,3082.69L817.936,3161.05C817.936,3161.05 832.139,3171.62 860.239,3163.96L853.381,3079.65L803.57,3082.69Z" style="fill:url(#_Linear7);"/>
        <path d="M769.039,2121.05C711.188,2485.48 777.31,3049.74 801.053,3154.7C802.508,3161.13 807.477,3166.05 813.716,3167.13C824.315,3168.96 841.764,3170.46 858.966,3165.25C864.893,3163.45 869.057,3157.87 869.298,3151.43C872.484,3066.57 866.75,2545.6 920.655,2339.71C923.387,2329.28 929.492,2320.18 937.938,2313.91L1026.65,2241.62L1028.3,2085.73L769.039,2121.05Z" style="fill:url(#_Linear8);"/>
        <path d="M1100.52,1536.39C948.042,1533.87 779.806,1576.42 779.806,1576.42C742.342,1795.02 757.385,2037.29 765.183,2117.07C766.781,2133.42 758.033,2150.74 774.256,2153.36C854.034,2166.25 979.433,2153.13 1018.4,2141.81C1032.64,2137.68 1030.22,2122.51 1033.25,2108C1059.4,1982.52 1134.21,1705.77 1134.21,1705.77C1170.48,1752.42 1221.65,1817.7 1297.29,1835.08C1258.74,1790.39 1332.68,1696.68 1324.79,1663.07C1256.4,1586.23 1147.54,1537.17 1100.52,1536.39Z" style="fill:url(#_Linear9);"/>
        <path d="M946.073,1412.6L897.559,1552.9C896.754,1555.23 897.71,1557.8 899.862,1558.99C913.087,1566.3 960.733,1587.44 1018.15,1551.04C1024.13,1547.24 1028.2,1541.06 1029.11,1534.04L1044.82,1412.6L946.073,1412.6Z" style="fill:url(#_Linear10);"/>
        <path d="M1051.63,1282.68C1051.63,1282.68 1104.91,1382.96 1098.08,1423.47C1091.25,1463.98 1025.23,1461.07 967.571,1428.17L927.282,1319.89L1051.63,1282.68Z" style="fill:url(#_Linear11);"/>
        <path d="M970.119,1375C972.462,1373.96 973.327,1371.09 971.923,1368.95C967.655,1362.43 959.654,1349.12 957.101,1337.48C957.101,1337.48 947.524,1331.34 981.478,1323.22C999.964,1318.79 1032.74,1315.13 1047.14,1301.84C1063.26,1286.97 1033.54,1258.86 1021.05,1251.32C1004.56,1241.36 984.478,1235.47 965.879,1240.49C956.904,1242.91 948.783,1247.71 940.788,1252.45C927.172,1260.53 913.077,1269.06 904.419,1282.31C898.814,1290.89 895.877,1300.9 893.188,1310.79C889.323,1325 885.787,1339.55 886.458,1354.26C888.246,1393.45 934.175,1428.56 971.112,1432.86C974.133,1433.21 976.474,1430.22 975.484,1427.35L960.386,1383.46C959.686,1381.42 960.661,1379.19 962.631,1378.31L970.119,1375Z" style="fill:url(#_Linear12);"/>
        <path d="M976.188,1381.23C976.188,1381.23 938.256,1355.2 935.485,1377.12C932.713,1399.03 969.643,1408.86 987.934,1400.69L976.188,1381.23Z" style="fill:url(#_Linear13);"/>
        <path d="M1071.04,1258.08C993.212,1111.07 791.492,1244.63 885.372,1368.47C955.172,1322.06 1034.04,1253.06 1071.04,1258.08Z" style="fill:url(#_Linear14);"/>
        <path d="M949.477,1320.36L1089.23,1316.04C1092.78,1315.93 1096.02,1313.96 1097.74,1310.85C1110.26,1288.25 1128.58,1273.84 1151.49,1265.93C1154.39,1264.93 1153.79,1260.66 1150.73,1260.45L1065.05,1254.62L1064.76,1254.62C1022.06,1257.91 984.258,1283.6 948.198,1317.26C946.996,1318.38 947.832,1320.41 949.477,1320.36Z" style="fill:url(#_Linear15);"/>
        <path d="M797.074,1798.96C882.411,1703.15 873.767,1629.4 777.448,1576.3C777.448,1576.3 617.792,1684.78 591.537,1822.32C621.703,1824.54 676.597,1832.39 730.327,1859.52C742.135,1794.58 797.074,1798.96 797.074,1798.96Z" style="fill:rgb(0,102,6);"/>
        <path d="M982.53,1897.55C982.53,1897.55 803.277,1998.85 742.794,1912.35C730.236,1894.39 727.235,1876.54 730.327,1859.52C676.597,1832.39 621.703,1824.54 591.537,1822.32C583.62,1863.78 587.806,1907.88 612.17,1952.45C718.115,2146.26 1006.25,1941.74 1006.25,1941.74L982.53,1897.55Z" style="fill:url(#_Linear16);"/>
        <path d="M960.994,2025.71L1058.82,1684.07C1059.93,1680.19 1063.24,1677.36 1067.25,1676.89C1084.97,1674.82 1136.33,1669.02 1195.63,1664C1267.06,1657.96 1350.01,1653.07 1399.58,1657.23C1406.63,1657.82 1410.89,1665.27 1407.75,1671.62C1379.57,1728.64 1263.62,1960.62 1205.56,2036.61C1203.63,2039.13 1200.66,2040.6 1197.49,2040.57L970.51,2038.46C963.905,2038.4 959.175,2032.06 960.994,2025.71Z" style="fill:rgb(41,169,224);"/>
        <path d="M1205.78,1634.38L1276.71,1622.56C1280.49,1621.94 1283.58,1625.55 1282.38,1629.18L1275.36,1650.46C1274.75,1652.31 1273.13,1653.65 1271.2,1653.91L1202.95,1663.02C1199.41,1663.5 1196.5,1660.29 1197.31,1656.82L1201.66,1638.24C1202.13,1636.24 1203.75,1634.72 1205.78,1634.38Z" style="fill:rgb(31,118,186);"/>
        <path d="M1152.67,1694.43L1158.52,1663.99C1159.1,1660.94 1161.62,1658.63 1164.71,1658.32L1307.97,1643.78C1312.79,1643.29 1316.66,1647.71 1315.52,1652.43L1306.42,1690.35C1305.69,1693.39 1303.04,1695.58 1299.93,1695.73L1159.93,1702.78C1155.38,1703.01 1151.81,1698.91 1152.67,1694.43Z" style="fill:rgb(31,118,186);"/>
        <path d="M984.628,1943.17C984.628,1943.17 971,1887.13 976.498,1867.25C981.995,1847.37 992.645,1821.81 1028.15,1827.49C1063.65,1833.17 1105.53,1848.12 1105.53,1848.12C1105.53,1848.12 1103.41,1874.02 1076.43,1865.67L1093.16,1878.61C1093.16,1878.61 1090.77,1899.35 1067.98,1888.27L1083.54,1905.44C1083.54,1905.44 1073.75,1922.47 1056.98,1911.54C1040.22,1900.62 1032.18,1949.92 984.628,1943.17Z" style="fill:url(#_Linear17);"/>
        <path d="M927.822,1729.85C916.632,1730.75 821.992,1733.78 821.992,1733.78L825.812,1829.06L874.839,1856.71L927.822,1829.06L927.822,1729.85Z" style="fill:url(#_Linear18);"/>
        <path d="M935.337,1729.85L822.204,1733.78L817.579,1770.34L876.458,1785.63L939.043,1757.74L935.337,1729.85Z" style="fill:url(#_Linear19);"/>
    </g>
    <defs>
        <linearGradient id="_Linear1" x1="0" y1="0" x2="1" y2="0" gradientUnits="userSpaceOnUse" gradientTransform="matrix(-74.7027,980.83,-980.83,-74.7027,2264.58,512.71)"><stop offset="0" style="stop-color:rgb(8,0,93);stop-opacity:1"/><stop offset="1" style="stop-color:rgb(26,14,144);stop-opacity:1"/></linearGradient>
        <linearGradient id="_Linear2" x1="0" y1="0" x2="1" y2="0" gradientUnits="userSpaceOnUse" gradientTransform="matrix(618.369,-785.695,-785.695,-618.369,1964.59,642.801)"><stop offset="0" style="stop-color:rgb(8,0,93);stop-opacity:1"/><stop offset="1" style="stop-color:rgb(26,14,144);stop-opacity:1"/></linearGradient>
        <linearGradient id="_Linear3" x1="0" y1="0" x2="1" y2="0" gradientUnits="userSpaceOnUse" gradientTransform="matrix(430.622,-760.027,-760.027,-430.622,2041.65,690.205)"><stop offset="0" style="stop-color:rgb(8,0,93);stop-opacity:1"/><stop offset="1" style="stop-color:rgb(26,14,144);stop-opacity:1"/></linearGradient>
        <linearGradient id="_Linear4" x1="0" y1="0" x2="1" y2="0" gradientUnits="userSpaceOnUse" gradientTransform="matrix(-1217.9,1558.19,-1558.19,-1217.9,1871.44,1035.35)"><stop offset="0" style="stop-color:rgb(253,186,186);stop-opacity:1"/><stop offset="1" style="stop-color:rgb(255,145,142);stop-opacity:1"/></linearGradient>
        <linearGradient id="_Linear5" x1="0" y1="0" x2="1" y2="0" gradientUnits="userSpaceOnUse" gradientTransform="matrix(-685.959,877.624,-877.624,-685.959,2011.42,1442.53)"><stop offset="0" style="stop-color:rgb(253,186,186);stop-opacity:1"/><stop offset="1" style="stop-color:rgb(255,145,142);stop-opacity:1"/></linearGradient>
        <linearGradient id="_Linear6" x1="0" y1="0" x2="1" y2="0" gradientUnits="userSpaceOnUse" gradientTransform="matrix(327.468,1423.35,-1423.35,327.468,738.676,1382.2)"><stop offset="0" style="stop-color:rgb(8,0,93);stop-opacity:1"/><stop offset="1" style="stop-color:rgb(26,14,144);stop-opacity:1"/></linearGradient>
        <linearGradient id="_Linear7" x1="0" y1="0" x2="1" y2="0" gradientUnits="userSpaceOnUse" gradientTransform="matrix(56.6688,0,0,56.6688,803.57,3123.2)"><stop offset="0" style="stop-color:rgb(253,186,186);stop-opacity:1"/><stop offset="1" style="stop-color:rgb(255,145,142);stop-opacity:1"/></linearGradient>
        <linearGradient id="_Linear8" x1="0" y1="0" x2="1" y2="0" gradientUnits="userSpaceOnUse" gradientTransform="matrix(331.685,1441.68,-1441.68,331.685,629.779,1381.9)"><stop offset="0" style="stop-color:rgb(8,0,93);stop-opacity:1"/><stop offset="1" style="stop-color:rgb(26,14,144);stop-opacity:1"/></linearGradient>
        <linearGradient id="_Linear9" x1="0" y1="0" x2="1" y2="0" gradientUnits="userSpaceOnUse" gradientTransform="matrix(2e-06,0,0,2e-06,-53.6413,1562.71)"><stop offset="0" style="stop-color:rgb(24,160,53);stop-opacity:1"/><stop offset="1" style="stop-color:rgb(1,96,21);stop-opacity:1"/></linearGradient>
        <linearGradient id="_Linear10" x1="0" y1="0" x2="1" y2="0" gradientUnits="userSpaceOnUse" gradientTransform="matrix(147.545,0,0,147.545,897.276,1492.18)"><stop offset="0" style="stop-color:rgb(253,186,186);stop-opacity:1"/><stop offset="1" style="stop-color:rgb(255,145,142);stop-opacity:1"/></linearGradient>
        <linearGradient id="_Linear11" x1="0" y1="0" x2="1" y2="0" gradientUnits="userSpaceOnUse" gradientTransform="matrix(-162.227,-98.9468,98.9468,-162.227,1079.91,1398.31)"><stop offset="0" style="stop-color:rgb(253,186,186);stop-opacity:1"/><stop offset="1" style="stop-color:rgb(255,145,142);stop-opacity:1"/></linearGradient>
        <linearGradient id="_Linear12" x1="0" y1="0" x2="1" y2="0" gradientUnits="userSpaceOnUse" gradientTransform="matrix(176.17,139.145,-139.145,176.17,851.561,1236.58)"><stop offset="0" style="stop-color:rgb(8,0,93);stop-opacity:1"/><stop offset="1" style="stop-color:rgb(26,14,144);stop-opacity:1"/></linearGradient>
        <linearGradient id="_Linear13" x1="0" y1="0" x2="1" y2="0" gradientUnits="userSpaceOnUse" gradientTransform="matrix(-145.958,-89.0237,89.0237,-145.958,1037.3,1435.21)"><stop offset="0" style="stop-color:rgb(253,186,186);stop-opacity:1"/><stop offset="1" style="stop-color:rgb(255,145,142);stop-opacity:1"/></linearGradient>
        <linearGradient id="_Linear14" x1="0" y1="0" x2="1" y2="0" gradientUnits="userSpaceOnUse" gradientTransform="matrix(280.896,-242.592,-242.592,-280.896,9365.9,8550.63)"><stop offset="0" style="stop-color:rgb(8,1,138);stop-opacity:1"/><stop offset="1" style="stop-color:rgb(26,14,144);stop-opacity:1"/></linearGradient>
        <linearGradient id="_Linear15" x1="0" y1="0" x2="1" y2="0" gradientUnits="userSpaceOnUse" gradientTransform="matrix(-280.896,242.592,-242.592,-280.896,1126.16,1225.59)"><stop offset="0" style="stop-color:rgb(8,0,93);stop-opacity:1"/><stop offset="1" style="stop-color:rgb(26,14,144);stop-opacity:1"/></linearGradient>
        <linearGradient id="_Linear16" x1="0" y1="0" x2="1" y2="0" gradientUnits="userSpaceOnUse" gradientTransform="matrix(418.355,0,0,418.355,587.897,1929.11)"><stop offset="0" style="stop-color:rgb(253,186,186);stop-opacity:1"/><stop offset="1" style="stop-color:rgb(255,145,142);stop-opacity:1"/></linearGradient>
        <linearGradient id="_Linear17" x1="0" y1="0" x2="1" y2="0" gradientUnits="userSpaceOnUse" gradientTransform="matrix(130.335,0,0,130.335,975.191,1885.24)"><stop offset="0" style="stop-color:rgb(253,186,186);stop-opacity:1"/><stop offset="1" style="stop-color:rgb(255,145,142);stop-opacity:1"/></linearGradient>
        <linearGradient id="_Linear18" x1="0" y1="0" x2="1" y2="0" gradientUnits="userSpaceOnUse" gradientTransform="matrix(31.9201,-488.378,-488.378,-31.9201,856.435,1467.61)"><stop offset="0" style="stop-color:rgb(8,0,93);stop-opacity:1"/><stop offset="1" style="stop-color:rgb(26,14,144);stop-opacity:1"/></linearGradient>
        <linearGradient id="_Linear19" x1="0" y1="0" x2="1" y2="0" gradientUnits="userSpaceOnUse" gradientTransform="matrix(210.673,-293.665,-293.665,-210.673,655.509,1442.11)"><stop offset="0" style="stop-color:rgb(8,0,93);stop-opacity:1"/><stop offset="1" style="stop-color:rgb(26,14,144);stop-opacity:1"/></linearGradient>
    </defs>
</svg>
