<?xml version="1.0" encoding="utf-8"?>
<!-- Generator: Adobe Illustrator 25.4.1, SVG Export Plug-In . SVG Version: 6.00 Build 0)  -->
<svg version="1.1" xmlns="http://www.w3.org/2000/svg" xmlns:xlink="http://www.w3.org/1999/xlink" x="0px" y="0px"
	 viewBox="0 0 349.28 297.19" style="enable-background:new 0 0 349.28 297.19;" xml:space="preserve">
<style type="text/css">
	.st0{fill:#7F7F7F;}
	.st1{fill:#2076B9;}
	.st2{fill:#19A049;}
	.st3{fill:#29A8E0;}
</style>
<g id="_x31_">
	<g>
		<g>
			
				<ellipse transform="matrix(0.9239 -0.3827 0.3827 0.9239 -57.4485 120.3986)" class="st0" cx="273.92" cy="204.61" rx="23.35" ry="23.35"/>
		</g>
		<g>
			
				<ellipse transform="matrix(0.1602 -0.9871 0.9871 0.1602 28.0771 442.2122)" class="st1" cx="273.92" cy="204.61" rx="9.73" ry="9.73"/>
		</g>
		<g>
			
				<ellipse transform="matrix(0.7071 -0.7071 0.7071 0.7071 -108.3546 147.6204)" class="st0" cx="124.02" cy="204.61" rx="23.35" ry="23.35"/>
		</g>
		<g>
			
				<ellipse transform="matrix(0.7071 -0.7071 0.7071 0.7071 -108.3546 147.6204)" class="st1" cx="124.02" cy="204.61" rx="9.73" ry="9.73"/>
		</g>
		<g>
			<path class="st2" d="M301.74,204.61h19.07v-5.84h4.28v-10.12h-6.61V154.8l-22.96-14.01l-25.68-36.19h-36.19v76.65h-7.78V84.38
				H80.35v96.88h-7.39v23.35h21.4c0,0,1.35-28.01,29.66-28.01s28.7,28.01,28.7,28.01h92.6c0,0,2.72-28.4,28.6-28.4
				S301.74,204.61,301.74,204.61z"/>
		</g>
		<g>
			<polygon class="st3" points="239.78,112.2 239.78,132.92 279.17,132.92 267.21,112.2 			"/>
		</g>
		<g>
			<rect x="91.44" y="92.94" class="st3" width="121.78" height="16.34"/>
		</g>
		<g>
			<rect x="91.44" y="116.57" class="st3" width="121.78" height="16.34"/>
		</g>
		<g>
			<rect x="91.44" y="140.21" class="st3" width="121.78" height="16.34"/>
		</g>
		<g>
			<rect x="33.75" y="103.44" class="st2" width="35.31" height="11.67"/>
		</g>
		<g>
			<rect x="44.55" y="130.87" class="st2" width="24.51" height="11.67"/>
		</g>
		<g>
			<rect x="56.81" y="158.3" class="st2" width="12.26" height="11.67"/>
		</g>
	</g>
</g>
<g id="Designed_by_Vecteezy">
</g>
</svg>
