<?xml version="1.0" encoding="utf-8"?>
<!-- Generator: Adobe Illustrator 25.4.1, SVG Export Plug-In . SVG Version: 6.00 Build 0)  -->
<svg version="1.1" id="Layer_2" xmlns="http://www.w3.org/2000/svg" xmlns:xlink="http://www.w3.org/1999/xlink" x="0px" y="0px"
	 viewBox="0 0 284.76 334.92" style="enable-background:new 0 0 284.76 334.92;" xml:space="preserve">
<style type="text/css">
	.st0{fill:#5B5B5B;}
	.st1{font-family:'Tajawal-Bold';}
	.st2{font-size:45px;}
	.st3{fill:#29A9E0;}
	.st4{fill:#18A035;}
	.st5{fill:#1F76BA;}
	.st6{fill:#7F7F7F;}
</style>
<text transform="matrix(1 0 0 1 80.008 293.4597)" class="st0 st1 st2">WANO</text>
<g>
	<g>
		<path id="XMLID_3_" class="st3" d="M232.14,164.13c-22.75,54.94-84.89,80.68-138.79,57.49c-41.46-17.83-65.97-59.42-64.72-102.67
			c-7.45,47.9,17.66,96.6,63.47,116.31c53.9,23.19,116.04-2.55,138.79-57.49c5.25-12.68,7.94-25.81,8.31-38.79
			C237.88,147.45,235.55,155.88,232.14,164.13z"/>
		<path id="XMLID_2_" class="st4" d="M125.19,37.22c58.18-6.32,110.37,36.62,116.57,95.92c4.77,45.61-19.06,87.6-56.79,107.43
			c44.73-16.55,74.38-62.53,69.11-112.92c-6.2-59.29-58.39-102.24-116.57-95.92c-13.43,1.46-26,5.42-37.32,11.37
			C108.09,40.18,116.45,38.16,125.19,37.22z"/>
		<path id="XMLID_1_" class="st5" d="M66.14,193.63c-32.91-49.3-20.37-116.46,28-150c37.21-25.8,84.78-24.19,119.73,0.36
			C178.46,11.6,124.7,6.64,83.58,35.14c-48.37,33.54-60.91,100.7-28,150c7.6,11.38,16.95,20.81,27.44,28.18
			C76.77,207.6,71.08,201.03,66.14,193.63z"/>
	</g>
	<g>
		<g>
			<path class="st6" d="M162.93,79.25c0.39-0.2,0.78-0.39,1.26-0.64c-1.08-1.56-3.34-2.87-0.46-5.4c1.09,1.92,2.12,3.73,3.23,5.67
				c2.27,0.12,2.38,0.29,1.16,2.96c2.97-1.63,5.42-3.56,8.2-4.33c2.7-0.75,5.73-0.32,8.62-0.4c-0.14-0.22-0.29-0.44-0.43-0.67
				c0.88-1.04,1.59-2.34,2.69-3.04c1.22-0.79,2.8-1.04,4.22-1.52c-0.04-0.21-0.09-0.43-0.13-0.64c-0.79,0.13-1.59,0.22-2.37,0.42
				c-1.29,0.33-2.73,0.56-3.32-0.81c-0.34-0.79,0.24-1.99,0.44-3c0.05-0.26,0.24-0.49,0.11-0.97c-0.88,0.77-1.85,1.47-2.61,2.36
				c-0.35,0.41-0.43,1.19-0.35,1.77c0.11,0.81,0.94,1.98,0.65,2.32c-1.04,1.24-2.42,2.19-3.77,3.34c-0.62-1.05-1.02-1.59-1.27-2.19
				c-0.44-1.06-1.06-1.44-2.24-1.09c-1.59,0.47-2.64-0.39-3.01-1.84c-0.4-1.59,0.41-2.76,1.97-3.11c1.83-0.4,3.04-1.26,3.94-3
				c1.05-2.02,2.98-2.3,4.89-1.21c11.94,6.82,21.32,16.31,28.52,27.9c3.37,5.43,6.27,11.18,7.79,17.48c0.38,1.56-0.87,4.83-2.3,5.72
				c-2.22,1.39-4.45,2.77-6.73,4.08c-2.45,1.4-3.92,0.67-4.68-2.1c-0.4-1.46-0.77-2.88-2.32-3.81c-0.71-0.43-0.78-1.84-1.3-2.7
				c-1.71-2.84-3.5-5.64-5.26-8.46c-0.21,0.1-0.43,0.2-0.64,0.3c0.05,0.45-0.01,0.96,0.18,1.35c1.88,3.87,3.69,7.79,5.76,11.57
				c1.19,2.16,2.79,4.11,4.32,6.06c0.24,0.31,1.09,0.32,1.61,0.23c1.6-0.28,3.17-0.75,4.78-1c0.6-0.09,1.58,0.01,1.83,0.39
				c0.29,0.44,0.2,1.45-0.14,1.92c-2.12,2.94-3.97,6.24-6.66,8.55c-3.17,2.72-4.5,5.75-4.3,9.71c0.05,0.89-0.06,1.8,0.14,2.65
				c0.62,2.63-0.18,4.7-2.15,6.46c-1.65,1.48-2.8,3.2-2.16,5.61c0.09,0.33,0.12,0.85-0.07,1.07c-2.96,3.5-5.17,7.68-9.13,10.28
				c-0.36,0.23-0.81,0.37-1.24,0.43c-1.4,0.2-2.78-0.21-4.24,0.56c-0.89,0.47-2.27-0.46-1.89-1.93c0.5-1.93-0.07-3.27-1.64-4.38
				c-0.38-0.27-0.66-0.82-0.78-1.29c-0.61-2.57-1.11-5.17-1.73-7.74c-0.67-2.82-0.96-5.58-0.01-8.45c0.8-2.43-0.52-4.69-1.62-6.63
				c-1.19-2.11-1.85-4.03-1.49-6.45c0.25-1.66,0.09-3.38-2.4-3.24c-0.47,0.03-1.25-0.18-1.41-0.51c-1.02-2.16-2.61-1.08-4.1-0.88
				c-2.81,0.37-5.63,0.66-8.46,0.94c-0.33,0.03-0.82-0.06-1.02-0.29c-2.31-2.6-4.82-5.09-6.75-7.95c-0.68-1.01-0.17-3.07,0.27-4.5
				c0.39-1.26,1.17-2.3,0.18-3.63c-0.27-0.36-0.4-1.1-0.21-1.49c1.24-2.59,2.17-5.37,4.78-7.1c0.76-0.5,1.48-1.53,1.61-2.41
				c0.29-1.95,3.09-4.2,5.1-4.22c1.66-0.02,3.31-0.66,4.97-1.01c0.98-0.2,1.97-0.43,2.96-0.51c0.93-0.07,1.91,0.23,2.81,0.05
				c2.52-0.5,2.96-0.16,2.8,2.52c-0.01,0.22,0.05,0.44,0.04,0.33c1.84,1.05,3.43,2.13,5.17,2.84c0.68,0.28,2.36-0.09,2.45-0.45
				c0.65-2.51,2.28-1.9,3.6-1.1c2.39,1.45,4.86,1.33,7.43,0.99c1.67-0.22,2.9-0.65,2.19-2.77c-0.19-0.58-0.05-1.27-0.06-2.12
				c-1.91,0.18-3.62,0.32-5.33,0.5c-1.61,0.17-3-1.88-2.72-4.25c-0.72,0.03-1.42,0.05-2.29,0.08c0.28,1.3,0.51,2.37,0.8,3.69
				c-0.85,0.23-1.59,0.43-2.72,0.73c0.09-1,0.16-1.74,0.2-2.16c-0.66-0.62-1.73-1.14-1.77-1.73c-0.22-3.4-3.06-3.59-5.13-4.73
				c-0.13,0.14-0.25,0.28-0.38,0.42c1.01,0.81,1.94,1.76,3.04,2.42c1.89,1.14,2.25,2.59,0.47,4.88c-0.44-1.28-0.76-2.23-1.16-3.38
				c-1.71,0.46-2.74-0.36-3.3-2.3c-0.34-1.19-1.42-1.75-2.83-1.1c-0.67,0.31-1.49,0.28-2.23,0.44c-0.5,0.11-1.18,0.12-1.44,0.44
				c-1.46,1.86-2.82,3.81-4.22,5.72c-0.17,0.23-0.32,0.53-0.55,0.63c-1.53,0.66-5.02-0.06-6.12-1.38c-0.34-0.41-0.4-1.18-0.34-1.76
				c0.12-1.28,0.31-2.58,0.67-3.8c0.12-0.41,0.83-0.85,1.31-0.91c0.51-0.06,1.08,0.52,1.6,0.48c0.76-0.05,1.97-0.21,2.14-0.65
				c0.24-0.64-0.17-1.61-0.49-2.35c-0.33-0.75-0.89-1.4-1.64-2.53c-1.88-0.3-2.24-0.8-1.5-3.02
				C162.87,79.42,162.89,79.34,162.93,79.25z M194.8,85.68c-2.07,0.87-2.74,2.59-1.85,4.45c3.44,0.14,6.62,0.28,9.8,0.41
				c0.11-0.2,0.22-0.39,0.33-0.59c-0.86-0.75-1.63-1.66-2.61-2.2c-1.6-0.89-1.93-1.72,0.18-3.05c-1.15,0.25-1.77,0.39-2.11,0.46
				c-0.46,0.94-0.8,1.66-1.15,2.38C196.58,86.96,195.77,86.38,194.8,85.68z"/>
		</g>
		<path class="st6" d="M68.96,112.06c-2.03,0.83-3.62,1.47-5.83,2.37c2.29-10.74,6.86-19.77,12.9-27.99
			c8.21-11.18,18.5-19.94,31.22-25.58c0.26,0.19,0.52,0.37,0.78,0.56c-0.36,0.92-0.62,1.9-1.1,2.76c-1.04,1.86-2.52,3.66-1.41,5.9
			c0.61,1.24,1.74,2.22,2.97,3.74c0.5-1.26,0.84-2.11,1.22-3.08c0.74-0.16,1.73-0.38,2.53-0.55c0.5,1.16,0.94,2.18,1.49,3.45
			c0.91-0.59,1.52-1.24,2.24-1.39c0.78-0.17,1.69,0.02,2.47,0.27c0.24,0.08,0.5,1.14,0.32,1.3c-0.55,0.51-1.26,0.98-1.98,1.16
			c-0.81,0.2-1.71,0.06-2.85,0.08c0.95,0.79,1.62,1.35,2.3,1.92c-0.11,0.24-0.23,0.47-0.34,0.71c-1.65-0.32-3.29-0.63-4.94-0.95
			c0.05-0.18,0.09-0.35,0.14-0.53c-1.74,0.77-3.48,1.55-5.24,2.3c-0.61,0.26-1.4,0.28-1.86,0.68c-0.85,0.74-1.51,1.69-2.25,2.55
			c0.78,0.54,1.5,1.4,2.36,1.57c1.67,0.31,2.33,1.26,2.68,2.75c0.18,0.77,0.61,1.49,1,2.42c3.05-1.52,5.12-3.89,7.04-6.45
			c0.78-1.04,1.48-2.35,2.55-2.95c2.59-1.44,3.76-0.85,5.36,2.1c5.45-0.1,6.05,0.43,5.49,4.99c0.7,0.04,1.39,0.08,2.58,0.15
			c-0.77,1.22-1.86,2.19-1.85,3.15c0,0.93,1.12,1.85,2.2,3.44c-2.07-0.16-3.64-0.27-5.2-0.39c0.23-0.86,0.46-1.72,0.81-3
			c-3.43,0.44-6.87,0.88-10.63,1.36c1.17,1.98,4.02-2.18,3.84,1.8c0.98,1,3.27-0.33,3.64,2.65c-2.32,0.08-4.55,0.1-6.76,0.25
			c-0.95,0.06-2.03,0.16-2.79,0.65c-2.02,1.28-3.73,3.18-5.88,4.07c-2.61,1.08-3.11,3.4-4.49,5.28c-1.12,1.53-3.21,2.35-5.13,3.66
			c-0.07,1.57,1.03,3.86-0.66,5.08c-1.64-1.67-2.88-3-4.21-4.24c-0.33-0.3-0.97-0.45-1.44-0.4c-2.65,0.29-5.38,0.36-7.92,1.08
			c-3.32,0.93-4.87,7.27-2.53,9.44c1.92,1.78,3.54,1.71,5.2-0.24c1.08-1.27,2.23-1.56,3.64-0.3c-0.22,0.53-0.37,1.1-0.66,1.58
			c-1.18,1.98-1.03,2.45,1.12,2.78c1.94,0.3,2.07,1.63,1.85,3.12c-0.33,2.22,0.55,3.27,2.78,3.22c0.44-0.01,0.99-0.19,1.31,0.01
			c2.52,1.57,3.87-0.26,5.36-1.75c0.44-0.44,0.95-0.81,2.01-1.7c-0.07,1.77-0.12,2.85-0.16,3.93c0.18,0.06,0.36,0.13,0.54,0.19
			c0.29-0.96,0.58-1.91,0.89-2.94c0.21-0.06,0.54-0.27,0.77-0.2c2.69,0.9,5.41,1.71,8.01,2.81c2.12,0.9,4.2,2.01,6.09,3.31
			c1.53,1.05,2.98,2.39,4.01,3.91c0.43,0.64-0.31,2.08-0.54,3.28c1.27-0.71,2.91-1.85,2.54,1.58c1.7-1.92,3.14-2.1,4.44-0.11
			c0.13,0.21,0.7,0.31,0.97,0.21c2.01-0.71,3.71,0.26,4.91,1.48c1.46,1.49,2.77,2.37,4.73,1.16c1.02,1.79,0.44,2.74-0.68,4.02
			c-1.67,1.9-3.4,3.96-3.14,6.88c0.11,1.22-0.02,2.51-0.31,3.7c-0.56,2.27-2.01,3.52-4.47,3.88c-3.2,0.47-3.14,0.64-3.08,3.82
			c0.01,0.71,0.01,1.72-0.42,2.1c-2.28,2-3.56,5.36-7.1,5.37c0.25,1.16,0.93,2.4,0.58,3.19c-0.34,0.77-1.77,1.01-2.63,1.63
			c-0.82,0.59-1.51,1.36-2.85,2.1c0.48,2.23,1.2,4.44,1.37,6.69c0.11,1.45-0.35,3.07-1.02,4.37c-0.24,0.47-2.28,0.69-2.76,0.24
			c-1.63-1.52-2.97-3.37-4.32-5.16c-0.22-0.3,0.1-0.96,0.03-1.43c-0.23-1.6-0.46-3.22-0.81-4.8c-0.35-1.58-1.05-3.1-1.25-4.69
			c-0.38-2.98-0.42-6.01-0.76-9c-0.66-5.83-1.36-11.58-7.02-15.24c-1.76-1.14-3.06-3.14-4.28-4.95c-2.44-3.63-2.09-7.38,0.05-11.05
			c0.47-0.82,1.13-1.56,1.42-2.44c0.65-1.93-0.49-3.15-2.47-2.78c-2.32,0.42-4.27-0.61-5.71-2.58c-1.2-1.65-2.36-3.55-4.91-3.39
			c-0.37,0.02-0.88-0.3-1.12-0.61c-0.98-1.3-2.2-1.36-3.72-1.17c-3.05,0.37-5.22-1.46-6.74-3.72
			C71.78,117.94,70.54,115.06,68.96,112.06z"/>
		<path class="st6" d="M124.03,66.71c0.01-1.45-0.79-3.19,1.66-3.74c0.09-0.3,0.17-0.59,0.26-0.89c-0.5-0.04-1.03,0-1.49-0.16
			c-0.35-0.12-0.92-0.59-0.87-0.73c1.27-3.62-2.05-2.15-3.28-2.94c-0.64-0.41-1.43-0.6-2.22-0.91c6.21-7.83,53.95-4.06,61.41,4.89
			c-3.22-0.15-6.27-0.75-9.14-0.29c-2.94,0.47-5.71,2-8.71,3.12c0.54,0.43,1.03,0.72,1.39,1.13c0.87,0.96,0.8,1.75-0.58,2.06
			c-1.81,0.41-3.62,0.87-5.45,1.07c-2.52,0.27-4.8,0.81-7.02,2.29c-1.56,1.04-3.78,1.21-5.75,1.49c-1.97,0.28-3.39,1.33-4.1,2.95
			c-1.06,2.44-3.21,2.65-5.15,2.52c-1.76-0.12-2.81-1.71-3.03-3.6c-0.03-0.27-0.22-0.53-0.23-0.54c-1.28,0.51-2.49,0.99-3.69,1.47
			c0.1,0.11,0.2,0.23,0.29,0.34c-1.25,1-2.49,2.03-3.79,2.96c-0.16,0.11-0.73-0.28-1.06-0.51c-0.92-0.65-1.84-1.31-2.72-2.02
			c-0.35-0.29-0.88-0.75-0.83-1.05c0.06-0.38,0.59-0.88,0.99-0.95c0.97-0.18,1.98-0.14,2.97-0.21c0.47-0.04,0.94-0.14,1.41-0.21
			c-0.23-0.46-0.33-1.08-0.7-1.37c-1.11-0.86-2.1-1.65-3.86-1.37c-1.51,0.25-3.2-0.61-5.24-1.07c0.37-0.39,0.79-1.23,1.34-1.33
			c1.44-0.24,2.96-0.37,4.39-0.16c2.36,0.35,4.74,0.8,6.96,1.62c1.03,0.38,1.69,1.75,2.6,2.77c1.02-3.13,5.27-4.8,3.14-9.2
			c-1.07,0.45-2.22,0.81-3.26,1.39c-2.13,1.17-4.3,1.85-6.73,1.14L124.03,66.71z"/>
		<path class="st6" d="M204.23,187.58c-3.72,3.27-7.21,6.48-10.88,9.46c-0.75,0.61-2.22,0.27-3.33,0.51
			c-1.13,0.24-2.33,0.47-3.3,1.05c-1.41,0.84-2.63,2-3.95,2.99c-2.23,1.69-5.27,0.36-6.24-1.72c-0.39-0.84-0.92-1.67-1.58-2.31
			c-2.45-2.4-1.37-4.31,1-5.57c1.55-0.82,2.82-1.55,3.09-3.55c0.2-1.51,4.39-4.17,5.89-3.89c0.21-0.39,0.39-0.87,0.7-1.27
			c1.09-1.42,2.31-1.4,3.66-0.21c0.68,0.6,1.61,0.9,2.43,1.33c0.14-0.17,0.28-0.34,0.42-0.51c-0.4-0.63-0.81-1.26-1.29-2.02
			c1.06-1.32,1.93-1.89,3.72-0.59c2.29,1.66,4.98,2.76,7.44,4.2C202.72,185.9,203.26,186.65,204.23,187.58z"/>
		<path class="st6" d="M168.38,210.62c-19.37,5.67-37.83,5.12-56.55-2.1c2.38-1.78,4.43-1.67,6.18-0.47
			c4.12,2.82,7.84,2.19,11.63-0.63c0.83-0.62,2.12-0.62,3.21-0.85c1.15-0.24,2.61-0.04,3.4-0.68c1.92-1.56,3.78-1.02,5.81-0.61
			c1.44,0.29,2.94,0.65,4.01-1.16c0.81-1.37,3.23-0.99,3.96,0.5c0.88,1.8,1.98,2.66,4.19,2.21c1.06-0.22,2.32,0.82,3.53,0.99
			c2.01,0.28,4.06,0.29,6.08,0.45C165.43,208.4,166.87,208.87,168.38,210.62z"/>
		<path class="st6" d="M205.87,160.94c0.82-3.09,1.19-5.9,2.34-8.34c0.72-1.53,2.56-2.57,4.01-3.67c0.41-0.31,1.56-0.37,1.79-0.08
			c0.5,0.62,1.02,1.68,0.81,2.32c-0.54,1.65-1.56,3.13-2.23,4.74c-0.63,1.52-0.93,3.18-1.65,4.65c-0.45,0.92-1.42,2.25-2.1,2.22
			C207.83,162.73,206.88,161.62,205.87,160.94z"/>
		<path class="st6" d="M102.82,120.31c-1.96,0.09-3.79,0.03-5.33-1.61c-0.45-0.48-1.74-0.12-2.64-0.23
			c-0.56-0.07-1.1-0.28-1.65-0.43c0.45-0.44,0.83-1.01,1.36-1.29c3.24-1.66,5.53,0.73,8.03,2.05c0.26,0.14,0.12,1.03,0.17,1.57
			L102.82,120.31z"/>
		<path class="st6" d="M102.77,120.38c0.94-0.16,1.88-0.3,2.82-0.48c1.55-0.29,2.84-0.01,4.07,2.04c-2.63,0.16-4.8,0.29-7.32,0.45
			c0.23-0.99,0.35-1.53,0.48-2.07C102.82,120.31,102.77,120.38,102.77,120.38z"/>
		<path class="st6" d="M123.96,66.68c-1.21,1.93-5.31,2.21-6.58,0.42c-0.19-0.27-0.21-1.01-0.06-1.09c0.49-0.28,1.12-0.55,1.64-0.46
			c1.7,0.3,3.37,0.76,5.06,1.16C124.03,66.71,123.96,66.68,123.96,66.68z"/>
		<path class="st6" d="M162.93,79.25c-0.03,0.09-0.06,0.17-0.09,0.25c-1.55,0.85-3.08,2.03-5.01,0.15c1.16-1.02,2.19-1.94,3.28-2.9
			C162.58,76.92,162.9,77.98,162.93,79.25z"/>
	</g>
</g>
</svg>
